<?xml version="1.0" encoding="UTF-8"?>
<svg viewBox="0 0 260 260" version="1.1" xmlns="http://www.w3.org/2000/svg" xmlns:xlink="http://www.w3.org/1999/xlink">
    <defs>
        <ellipse id="path-1" cx="125.599375" cy="125.125" rx="125.599375" ry="125.125"></ellipse>
        <mask id="mask-3" maskContentUnits="userSpaceOnUse" maskUnits="objectBoundingBox" x="-3.25" y="-3.25" width="257.698749" height="256.75">
            <rect x="-3.25" y="-3.25" width="257.698749" height="256.75" fill="white"></rect>
            <use xlink:href="#path-1" fill="black"></use>
        </mask>
        <path d="M61.4064025,2.44671028 C88.8216694,-2.54927288 113.795372,9.3088396 114.298064,16.7942761 C114.800756,24.2797125 110.21031,35.0182308 99.8381464,32.8120629 C89.4659829,30.6058949 84.8159803,35.0182308 77.8229159,48.0967268 C70.8298515,61.1752227 75.0912233,78.1564966 71.0029261,75.4980782 C60.5159742,68.6789298 50.1440297,81.5581625 46.09769,88.3596191 C42.0513503,95.1610756 33.5519586,99.3280948 46.09769,112.458407 C58.6434214,125.588719 82.744001,126.910281 88.8216694,132.11886 C94.8993377,137.327439 107.275914,131.654584 117.635163,148.101836 C127.994411,164.549089 117.432607,168.587795 99.8381464,184.245045 C82.2436856,199.902295 85.0771128,199.213407 77.8229159,212.869193 C70.568719,226.524978 67.1483523,242.743184 61.4064025,232.537106 C55.6644527,222.331027 51.078565,217.125102 46.09769,202.38627 C41.116815,187.647438 36.2141228,182.964947 35.6964747,172.250353 C35.1788266,161.535759 52.7119259,153.976318 55.4582774,148.101836 C58.2046288,142.227354 54.4581605,132.11886 54.4581605,132.11886 L32.2580982,120.571731 C32.2580982,120.571731 -0.109884156,90.4352 1.12281468,62.9131692 C2.35551352,35.3911384 9.93597445,23.4222746 29.235561,11.0599099 C48.5351475,-1.30245485 33.9911356,7.44269345 61.4064025,2.44671028 Z M183.996377,11.0599099 C183.996377,11.0599099 155.058028,2.14637895 164.458001,14.4829116 C173.857975,26.8194443 205.002137,35.0182308 205.002137,35.0182308 L183.996377,11.0599099 Z M228.349169,61.5132952 C220.5264,55.3127544 202.215213,79.0449239 201.639915,93.0203257 C201.064616,106.995728 213.093968,104.893129 216.882202,125.430368 C220.670436,145.967607 206.198482,199.383129 213.514524,198.879509 C220.830566,198.375889 240.479896,123.805956 240.479896,123.805956 C240.479896,123.805956 236.171938,67.7138359 228.349169,61.5132952 Z" id="path-4"></path>
        <linearGradient x1="54.0294857%" y1="0%" x2="54.0294857%" y2="100%" id="linearGradient-6">
            <stop stop-color="#4AFCF9" offset="0%"></stop>
            <stop stop-color="#FCDE4B" offset="51.3352997%"></stop>
            <stop stop-color="#FC4BC1" offset="100%"></stop>
        </linearGradient>
    </defs>
    <g id="Page-1" stroke="none" stroke-width="1" fill="none" fill-rule="evenodd">
        <g id="favicon-copy-2">
            <g id="Group" transform="translate(4.875000, 4.875000)">
                <mask id="mask-2" fill="white">
                    <use xlink:href="#path-1"></use>
                </mask>
                <g id="Combined-Shape">
                    <use fill="#000000" fill-rule="evenodd" xlink:href="#path-1"></use>
                    <use stroke="#FFFFFF" mask="url(#mask-3)" stroke-width="6.5" xlink:href="#path-1"></use>
                </g>
                <g id="Oval-Copy" mask="url(#mask-2)">
                    <g transform="translate(15.209299, 7.633868)">
                        <mask id="mask-5" fill="white">
                            <use xlink:href="#path-4"></use>
                        </mask>
                        <g id="Mask" stroke="none" fill="none"></g>
                        <ellipse id="Oval-Copy" stroke="none" fill="url(#linearGradient-6)" fill-rule="evenodd" mask="url(#mask-5)" cx="110.733511" cy="117.491132" rx="123.531751" ry="122.729597"></ellipse>
                    </g>
                </g>
            </g>
            <path d="M-14.21875,133.892451 C18.3465372,133.892451 20.3900315,98.7338451 27.5499852,98.7338451 C34.7099389,98.7338451 39.5414617,151.768065 59.7868963,151.768065 C80.032331,151.768065 99.9025342,83.28125 110.423827,83.28125 C120.94512,83.28125 135.789035,156.634162 141.915432,163.73307 C148.041829,170.831978 153.374609,133.892451 162.522624,133.892451 C171.670639,133.892451 174.307017,175.749902 187.535598,175.749902 C200.764178,175.749902 219.194899,101.639025 230.925125,101.639025 C242.655351,101.639025 245.801814,163.73307 266.906238,163.73307" id="Path-6-Copy-2" stroke="#FFFFFF" stroke-width="19.5"></path>
        </g>
    </g>
</svg>
