<?xml version="1.0" encoding="UTF-8"?>
<svg width="1860px" height="400px" viewBox="0 0 1860 400" version="1.1" xmlns="http://www.w3.org/2000/svg">
    <path d="M32.8445748,319.228603 C32.8445748,319.228603 79.7653959,165.450273 127.859238,165.450273 C175.953079,165.450273 175.953079,60.9970674 222.8739,60.9970674 C270.967742,60.9970674 270.967742,289.246664 319.061584,289.246664 C365.982405,289.246664 365.982405,67.7671826 414.076246,67.7671826 C462.170088,67.7671826 462.170088,147.074246 509.090909,147.074246 C557.184751,147.074246 557.184751,207.038123 605.278592,207.038123 C652.199413,207.038123 652.199413,154.81152 700.293255,154.81152 C748.387097,154.81152 748.387097,244.757336 795.307918,244.757336 C843.40176,244.757336 843.40176,154.81152 891.495601,154.81152 C939.589443,154.81152 939.589443,293.115302 986.510264,293.115302 C1034.60411,293.115302 1034.60411,90.979006 1082.69795,90.979006 C1129.61877,90.979006 1129.61877,83.2417316 1177.71261,83.2417316 C1225.80645,83.2417316 1225.80645,165.450273 1272.72727,165.450273 C1320.82111,165.450273 1320.82111,259.264726 1368.91496,259.264726 C1415.83578,259.264726 1415.83578,173.187547 1463.92962,173.187547 C1512.02346,173.187547 1512.02346,353.079179 1558.94428,353.079179 C1607.03812,353.079179 1607.03812,143.205609 1655.13196,143.205609 C1702.05279,143.205609 1702.05279,334.703152 1750.14663,334.703152 C1798.24047,334.703152 1846.33431,192.530734 1846.33431,192.530734" id="Line_1" stroke="#FCDE4B" stroke-width="2"></path>
    <path d="M32.8445748,347.320714 C32.8445748,347.320714 79.7653959,200.050272 127.859238,200.050272 C175.953079,200.050272 175.953079,99.2862856 222.8739,99.2862856 C270.967742,99.2862856 270.967742,181.641467 319.061584,181.641467 C365.982405,181.641467 365.982405,8.2111437 414.076246,8.2111437 C462.170088,8.2111437 462.170088,245.587843 509.090909,245.587843 C557.184751,245.587843 557.184751,343.445177 605.278592,343.445177 C652.199413,343.445177 652.199413,207.801348 700.293255,207.801348 C748.387097,207.801348 748.387097,381.231672 795.307918,381.231672 C843.40176,381.231672 843.40176,38.2465628 891.495601,38.2465628 C939.589443,38.2465628 939.589443,230.085691 986.510264,230.085691 C1034.60411,230.085691 1034.60411,72.1575199 1082.69795,72.1575199 C1129.61877,72.1575199 1129.61877,256.245573 1177.71261,256.245573 C1225.80645,256.245573 1225.80645,200.050272 1272.72727,200.050272 C1320.82111,200.050272 1320.82111,290.15653 1368.91496,290.15653 C1415.83578,290.15653 1415.83578,143.854972 1463.92962,143.854972 C1512.02346,143.854972 1512.02346,215.552424 1558.94428,215.552424 C1607.03812,215.552424 1607.03812,87.6596717 1655.13196,87.6596717 C1702.05279,87.6596717 1702.05279,215.552424 1750.14663,215.552424 C1798.24047,215.552424 1846.33431,139.979434 1846.33431,139.979434" id="Line_2" stroke="#4AFCF9" stroke-width="2"></path>
    <path d="M32.8445748,297.824566 C32.8445748,297.824566 79.7653959,305.57342 127.859238,305.57342 C175.953079,305.57342 175.953079,260.048902 222.8739,260.048902 C270.967742,260.048902 270.967742,249.394228 319.061584,249.394228 C365.982405,249.394228 365.982405,279.421037 414.076246,279.421037 C462.170088,279.421037 462.170088,12.0855707 509.090909,12.0855707 C557.184751,12.0855707 557.184751,151.564945 605.278592,151.564945 C652.199413,151.564945 652.199413,249.394228 700.293255,249.394228 C748.387097,249.394228 748.387097,125.412562 795.307918,125.412562 C843.40176,125.412562 843.40176,8.2111437 891.495601,8.2111437 C939.589443,8.2111437 939.589443,27.583279 986.510264,27.583279 C1034.60411,27.583279 1034.60411,369.501466 1082.69795,369.501466 C1129.61877,369.501466 1129.61877,132.192809 1177.71261,132.192809 C1225.80645,132.192809 1225.80645,117.663708 1272.72727,117.663708 C1320.82111,117.663708 1320.82111,354.003758 1368.91496,354.003758 C1415.83578,354.003758 1415.83578,199.995283 1463.92962,199.995283 C1512.02346,199.995283 1512.02346,339.474657 1558.94428,339.474657 C1607.03812,339.474657 1607.03812,343.349084 1655.13196,343.349084 C1702.05279,343.349084 1702.05279,113.789281 1750.14663,113.789281 C1798.24047,113.789281 1846.33431,143.816091 1846.33431,143.816091" id="Line_3" stroke="#FC4BC1" stroke-width="2"></path>
</svg>
